solid burner
 facet normal 0 1 0
  outer loop
   vertex 0.04 0.04 0.04
   vertex 0.04 0.04 0.29
   vertex 0.29 0.04 0.04
  endloop
 endfacet
endsolid burner
solid burnerWall
 facet normal -1 0 0
  outer loop
   vertex 0.04 0 0.04
   vertex 0.04 0 0.29
   vertex 0.04 0.04 0.29
  endloop
 endfacet
 facet normal -1 0 0
  outer loop
   vertex 0.04 0 0.04
   vertex 0.04 0.04 0.29
   vertex 0.04 0.04 0.04
  endloop
 endfacet
 facet normal 0.707106781187 -0 0.707106781187
  outer loop
   vertex 0.29 0 0.04
   vertex 0.29 0.04 0.04
   vertex 0.04 0.04 0.29
  endloop
 endfacet
 facet normal 0.707106781187 -0 0.707106781187
  outer loop
   vertex 0.29 0 0.04
   vertex 0.04 0.04 0.29
   vertex 0.04 0 0.29
  endloop
 endfacet
 facet normal 0 0 -1
  outer loop
   vertex 0.04 0 0.04
   vertex 0.04 0.04 0.04
   vertex 0.29 0.04 0.04
  endloop
 endfacet
 facet normal 0 0 -1
  outer loop
   vertex 0.04 0 0.04
   vertex 0.29 0.04 0.04
   vertex 0.29 0 0.04
  endloop
 endfacet
 facet normal 0 -1 0
  outer loop
   vertex 0.04 0 0.04
   vertex 0.29 0 0.04
   vertex 0.04 0 0.29
  endloop
 endfacet
endsolid burnerWall
